# xmcd CD database file
#
# Track frame offsets:
#	187
#	30860
#	76392
#	88580
#	111955
#	123292
#	151937
#	174402
#	197990
#	220147
#	246715
#
# Disc length: 3492 seconds
#
# Revision: 0
# Processed by: cddbd v1.5.1PL2 Copyright (c) Steve Scherf et al.
# Submitted via: CDex 1.60beta1
#
DISCID=8d0da20b
DTITLE=Sonny Rollins - Sonny Rollins Days Of Jazz IV
DYEAR=1900
DGENRE=Jazz
TTITLE0=St. Thomas
TTITLE1=Moritat
TTITLE2=On A Slow Boat To china
TTITLE3=Paul's Pal
TTITLE4=Count Your Blessings Instead Of Sheep
TTITLE5=There's No Business Like Show Business
TTITLE6=Paradox
TTITLE7=The Way You Look Tonight
TTITLE8=I've Grown Accustomed To Your Face
TTITLE9=Cutie
TTITLE10=Ev'ry Time We Say Goodbye
EXTD=
EXTT0=
EXTT1=
EXTT2=
EXTT3=
EXTT4=
EXTT5=
EXTT6=
EXTT7=
EXTT8=
EXTT9=
EXTT10=
PLAYORDER=
